<svg xmlns="http://www.w3.org/2000/svg" viewBox="0 0 800 600" preserveAspectRatio="xMidYMid slice" role="img"><defs><linearGradient id="gWin" x1="0" y1="0" x2="0" y2="1"><stop offset="0%" stop-color="#DCEAF2"/><stop offset="55%" stop-color="#EDF4F8"/><stop offset="100%" stop-color="#F6F2EA"/></linearGradient><linearGradient id="gVig" x1="0" y1="0" x2="0" y2="1"><stop offset="0%" stop-color="#000000" stop-opacity="0.13"/><stop offset="38%" stop-color="#000000" stop-opacity="0"/><stop offset="100%" stop-color="#000000" stop-opacity="0.17"/></linearGradient></defs><rect x="0.0" y="0.0" width="800.0" height="400.0" fill="#F3EDE2"/><rect x="0.0" y="0.0" width="800.0" height="46.0" fill="#EBE4D8"/><rect x="0.0" y="46.0" width="800.0" height="4.0" fill="#E7DFD1" opacity="0.6"/><rect x="0.0" y="400.0" width="800.0" height="200.0" fill="#D5C6AE"/><rect x="0.0" y="390.0" width="800.0" height="10.0" fill="#C0AF93" opacity="0.45"/><line x1="0.0" y1="430.0" x2="800.0" y2="430.0" stroke="#C0AF93" stroke-width="1.5" stroke-linecap="round" opacity="0.35"/><line x1="0.0" y1="460.0" x2="800.0" y2="460.0" stroke="#C0AF93" stroke-width="1.5" stroke-linecap="round" opacity="0.35"/><line x1="0.0" y1="490.0" x2="800.0" y2="490.0" stroke="#C0AF93" stroke-width="1.5" stroke-linecap="round" opacity="0.35"/><line x1="0.0" y1="520.0" x2="800.0" y2="520.0" stroke="#C0AF93" stroke-width="1.5" stroke-linecap="round" opacity="0.35"/><line x1="0.0" y1="550.0" x2="800.0" y2="550.0" stroke="#C0AF93" stroke-width="1.5" stroke-linecap="round" opacity="0.35"/><line x1="0.0" y1="580.0" x2="800.0" y2="580.0" stroke="#C0AF93" stroke-width="1.5" stroke-linecap="round" opacity="0.35"/><rect x="150.0" y="46.0" width="260.0" height="9.0" fill="#F8F6F2" rx="4"/><rect x="470.0" y="46.0" width="200.0" height="9.0" fill="#F8F6F2" rx="4"/><rect x="150.0" y="55.0" width="260.0" height="16.0" fill="#FFFFFF" rx="6" opacity="0.28"/><rect x="470.0" y="55.0" width="200.0" height="16.0" fill="#FFFFFF" rx="6" opacity="0.28"/><rect x="60.0" y="96.0" width="680.0" height="20.0" fill="#E7DFD1" rx="4" opacity="0.6"/><rect x="70.0" y="120.0" width="660.0" height="300.0" fill="#B18653" rx="5"/><rect x="78.0" y="128.0" width="100.0" height="284.0" fill="#D2A870" rx="4"/><rect x="78.0" y="128.0" width="100.0" height="96.0" fill="#FFFFFF" rx="4" opacity="0.14"/><rect x="116.0" y="238.0" width="24.0" height="5.0" fill="#7C858E" rx="3"/><rect x="116.0" y="346.0" width="24.0" height="5.0" fill="#7C858E" rx="3"/><rect x="187.0" y="128.0" width="100.0" height="284.0" fill="#D2A870" rx="4"/><rect x="187.0" y="128.0" width="100.0" height="96.0" fill="#FFFFFF" rx="4" opacity="0.5"/><rect x="225.0" y="238.0" width="24.0" height="5.0" fill="#7C858E" rx="3"/><rect x="225.0" y="346.0" width="24.0" height="5.0" fill="#7C858E" rx="3"/><rect x="296.0" y="128.0" width="100.0" height="284.0" fill="#D2A870" rx="4"/><rect x="296.0" y="128.0" width="100.0" height="96.0" fill="#FFFFFF" rx="4" opacity="0.14"/><rect x="334.0" y="238.0" width="24.0" height="5.0" fill="#7C858E" rx="3"/><rect x="334.0" y="346.0" width="24.0" height="5.0" fill="#7C858E" rx="3"/><rect x="405.0" y="128.0" width="100.0" height="284.0" fill="#D2A870" rx="4"/><rect x="405.0" y="128.0" width="100.0" height="96.0" fill="#FFFFFF" rx="4" opacity="0.5"/><rect x="443.0" y="238.0" width="24.0" height="5.0" fill="#7C858E" rx="3"/><rect x="443.0" y="346.0" width="24.0" height="5.0" fill="#7C858E" rx="3"/><rect x="514.0" y="128.0" width="100.0" height="284.0" fill="#D2A870" rx="4"/><rect x="514.0" y="128.0" width="100.0" height="96.0" fill="#FFFFFF" rx="4" opacity="0.14"/><rect x="552.0" y="238.0" width="24.0" height="5.0" fill="#7C858E" rx="3"/><rect x="552.0" y="346.0" width="24.0" height="5.0" fill="#7C858E" rx="3"/><rect x="623.0" y="128.0" width="100.0" height="284.0" fill="#D2A870" rx="4"/><rect x="623.0" y="128.0" width="100.0" height="96.0" fill="#FFFFFF" rx="4" opacity="0.5"/><rect x="661.0" y="238.0" width="24.0" height="5.0" fill="#7C858E" rx="3"/><rect x="661.0" y="346.0" width="24.0" height="5.0" fill="#7C858E" rx="3"/><rect x="70.0" y="420.0" width="660.0" height="10.0" fill="#1C232C" rx="3" opacity="0.35"/><rect x="150.0" y="470.0" width="200.0" height="12.0" fill="#D2A870" rx="5"/><polygon points="738.0,460.0 782.0,460.0 777.0,414.0 743.0,414.0" fill="#B6633F"/><rect x="742.0" y="410.0" width="36.0" height="8.0" fill="#9E5334" rx="2"/><rect x="757.0" y="350.0" width="6.0" height="62.0" fill="#3E6448"/><ellipse cx="744.0" cy="382.0" rx="20.0" ry="15.6" fill="#4E7D5A" opacity="0.85"/><ellipse cx="774.0" cy="376.0" rx="18.0" ry="14.0" fill="#4E7D5A" opacity="0.7999999999999999"/><ellipse cx="760.0" cy="356.0" rx="22.0" ry="17.2" fill="#4E7D5A" opacity="0.75"/><ellipse cx="752.0" cy="332.0" rx="16.0" ry="12.5" fill="#4E7D5A" opacity="0.7"/><ellipse cx="772.0" cy="340.0" rx="15.0" ry="11.7" fill="#4E7D5A" opacity="0.6499999999999999"/><rect x="0" y="0" width="800" height="600" fill="url(#gVig)"/></svg>