<svg xmlns="http://www.w3.org/2000/svg" viewBox="0 0 800 600" preserveAspectRatio="xMidYMid slice" role="img"><defs><linearGradient id="gWin" x1="0" y1="0" x2="0" y2="1"><stop offset="0%" stop-color="#DCEAF2"/><stop offset="55%" stop-color="#EDF4F8"/><stop offset="100%" stop-color="#F6F2EA"/></linearGradient><linearGradient id="gVig" x1="0" y1="0" x2="0" y2="1"><stop offset="0%" stop-color="#000000" stop-opacity="0.13"/><stop offset="38%" stop-color="#000000" stop-opacity="0"/><stop offset="100%" stop-color="#000000" stop-opacity="0.17"/></linearGradient></defs><rect x="0.0" y="0.0" width="800.0" height="400.0" fill="#EDF1F5"/><rect x="0.0" y="0.0" width="800.0" height="46.0" fill="#E4E9EE"/><rect x="0.0" y="46.0" width="800.0" height="4.0" fill="#DEE4EB" opacity="0.6"/><rect x="0.0" y="400.0" width="800.0" height="200.0" fill="#C3CCD6"/><rect x="0.0" y="390.0" width="800.0" height="10.0" fill="#ACB7C3" opacity="0.45"/><line x1="0.0" y1="430.0" x2="800.0" y2="430.0" stroke="#ACB7C3" stroke-width="1.5" stroke-linecap="round" opacity="0.35"/><line x1="0.0" y1="460.0" x2="800.0" y2="460.0" stroke="#ACB7C3" stroke-width="1.5" stroke-linecap="round" opacity="0.35"/><line x1="0.0" y1="490.0" x2="800.0" y2="490.0" stroke="#ACB7C3" stroke-width="1.5" stroke-linecap="round" opacity="0.35"/><line x1="0.0" y1="520.0" x2="800.0" y2="520.0" stroke="#ACB7C3" stroke-width="1.5" stroke-linecap="round" opacity="0.35"/><line x1="0.0" y1="550.0" x2="800.0" y2="550.0" stroke="#ACB7C3" stroke-width="1.5" stroke-linecap="round" opacity="0.35"/><line x1="0.0" y1="580.0" x2="800.0" y2="580.0" stroke="#ACB7C3" stroke-width="1.5" stroke-linecap="round" opacity="0.35"/><rect x="56.0" y="74.0" width="300.0" height="250.0" fill="#ffffff" rx="4" opacity="0.95"/><rect x="56" y="74" width="300" height="250" rx="4" fill="url(#gWin)"/><rect x="70.0" y="250.0" width="40.0" height="74.0" fill="#B9C6CE" opacity="0.55"/><rect x="120.0" y="225.0" width="32.0" height="99.0" fill="#C7D2D8" opacity="0.5"/><rect x="175.0" y="262.0" width="46.0" height="62.0" fill="#B3C0C9" opacity="0.5"/><rect x="240.0" y="236.0" width="36.0" height="88.0" fill="#C2CDD4" opacity="0.5"/><rect x="295.0" y="268.0" width="48.0" height="56.0" fill="#B7C4CC" opacity="0.5"/><line x1="156.0" y1="74.0" x2="156.0" y2="324.0" stroke="#7C858E" stroke-width="5" stroke-linecap="butt" opacity="0.85"/><line x1="256.0" y1="74.0" x2="256.0" y2="324.0" stroke="#7C858E" stroke-width="5" stroke-linecap="butt" opacity="0.85"/><line x1="56.0" y1="190.0" x2="356.0" y2="190.0" stroke="#7C858E" stroke-width="5" stroke-linecap="butt" opacity="0.85"/><rect x="53" y="71" width="306" height="256" rx="5" fill="none" stroke="#7C858E" stroke-width="6"/><rect x="150.0" y="46.0" width="260.0" height="9.0" fill="#F8F6F2" rx="4"/><rect x="470.0" y="46.0" width="200.0" height="9.0" fill="#F8F6F2" rx="4"/><rect x="150.0" y="55.0" width="260.0" height="16.0" fill="#FFFFFF" rx="6" opacity="0.28"/><rect x="470.0" y="55.0" width="200.0" height="16.0" fill="#FFFFFF" rx="6" opacity="0.28"/><rect x="66.0" y="296.0" width="218.0" height="44.0" fill="#56606C" rx="4" opacity="0.85"/><rect x="66.0" y="296.0" width="218.0" height="5.0" fill="#454E58" rx="3" opacity="0.6"/><rect x="60.0" y="336.0" width="230.0" height="11.0" fill="#F8F6F2" rx="3"/><rect x="60.0" y="347.0" width="230.0" height="5.0" fill="#996E41" opacity="0.55"/><rect x="72.0" y="352.0" width="9.0" height="48.0" fill="#7C858E" rx="2"/><rect x="269.0" y="352.0" width="9.0" height="48.0" fill="#7C858E" rx="2"/><rect x="74.0" y="396.0" width="202.0" height="5.0" fill="#7C858E" rx="2" opacity="0.75"/><rect x="171.0" y="312.0" width="8.0" height="24.0" fill="#7C858E" rx="2"/><ellipse cx="175.0" cy="336.0" rx="26.0" ry="5.0" fill="#7C858E"/><rect x="131.0" y="258.0" width="88.0" height="54.0" fill="#2C3440" rx="4"/><rect x="135.0" y="262.0" width="80.0" height="46.0" fill="#8FA6B4" rx="2" opacity="0.85"/><rect x="228.0" y="352.0" width="52.0" height="86.0" fill="#F8F6F2" rx="4"/><rect x="228.0" y="352.0" width="52.0" height="86.0" fill="#7C858E" rx="4" opacity="0.14"/><line x1="236.0" y1="372.0" x2="272.0" y2="372.0" stroke="#7C858E" stroke-width="2" stroke-linecap="round" opacity="0.5"/><line x1="236.0" y1="396.0" x2="272.0" y2="396.0" stroke="#7C858E" stroke-width="2" stroke-linecap="round" opacity="0.5"/><line x1="236.0" y1="420.0" x2="272.0" y2="420.0" stroke="#7C858E" stroke-width="2" stroke-linecap="round" opacity="0.5"/><line x1="168.0" y1="454.0" x2="134.0" y2="464.0" stroke="#7C858E" stroke-width="5" stroke-linecap="round"/><circle cx="134.0" cy="464.0" r="4.5" fill="#7C858E"/><line x1="168.0" y1="454.0" x2="152.7" y2="464.0" stroke="#7C858E" stroke-width="5" stroke-linecap="round"/><circle cx="152.7" cy="464.0" r="4.5" fill="#7C858E"/><line x1="168.0" y1="454.0" x2="183.3" y2="464.0" stroke="#7C858E" stroke-width="5" stroke-linecap="round"/><circle cx="183.3" cy="464.0" r="4.5" fill="#7C858E"/><line x1="168.0" y1="454.0" x2="202.0" y2="464.0" stroke="#7C858E" stroke-width="5" stroke-linecap="round"/><circle cx="202.0" cy="464.0" r="4.5" fill="#7C858E"/><line x1="168.0" y1="454.0" x2="168.0" y2="464.0" stroke="#7C858E" stroke-width="5" stroke-linecap="round"/><circle cx="168.0" cy="464.0" r="4.5" fill="#7C858E"/><rect x="163.0" y="416.0" width="10.0" height="38.0" fill="#7C858E" rx="3"/><rect x="136.0" y="404.0" width="64.0" height="14.0" fill="#56606C" rx="6"/><rect x="142.0" y="342.0" width="52.0" height="62.0" fill="#56606C" rx="16"/><rect x="148.0" y="348.0" width="40.0" height="48.0" fill="#454E58" rx="10" opacity="0.4"/><rect x="128.0" y="398.0" width="12.0" height="5.0" fill="#1C232C" rx="2" opacity="0.7"/><rect x="196.0" y="398.0" width="12.0" height="5.0" fill="#1C232C" rx="2" opacity="0.7"/><rect x="306.0" y="296.0" width="218.0" height="44.0" fill="#56606C" rx="4" opacity="0.85"/><rect x="306.0" y="296.0" width="218.0" height="5.0" fill="#454E58" rx="3" opacity="0.6"/><rect x="300.0" y="336.0" width="230.0" height="11.0" fill="#F8F6F2" rx="3"/><rect x="300.0" y="347.0" width="230.0" height="5.0" fill="#996E41" opacity="0.55"/><rect x="312.0" y="352.0" width="9.0" height="48.0" fill="#7C858E" rx="2"/><rect x="509.0" y="352.0" width="9.0" height="48.0" fill="#7C858E" rx="2"/><rect x="314.0" y="396.0" width="202.0" height="5.0" fill="#7C858E" rx="2" opacity="0.75"/><rect x="411.0" y="312.0" width="8.0" height="24.0" fill="#7C858E" rx="2"/><ellipse cx="415.0" cy="336.0" rx="26.0" ry="5.0" fill="#7C858E"/><rect x="371.0" y="258.0" width="88.0" height="54.0" fill="#2C3440" rx="4"/><rect x="375.0" y="262.0" width="80.0" height="46.0" fill="#8FA6B4" rx="2" opacity="0.85"/><rect x="468.0" y="352.0" width="52.0" height="86.0" fill="#F8F6F2" rx="4"/><rect x="468.0" y="352.0" width="52.0" height="86.0" fill="#7C858E" rx="4" opacity="0.14"/><line x1="476.0" y1="372.0" x2="512.0" y2="372.0" stroke="#7C858E" stroke-width="2" stroke-linecap="round" opacity="0.5"/><line x1="476.0" y1="396.0" x2="512.0" y2="396.0" stroke="#7C858E" stroke-width="2" stroke-linecap="round" opacity="0.5"/><line x1="476.0" y1="420.0" x2="512.0" y2="420.0" stroke="#7C858E" stroke-width="2" stroke-linecap="round" opacity="0.5"/><line x1="408.0" y1="454.0" x2="374.0" y2="464.0" stroke="#7C858E" stroke-width="5" stroke-linecap="round"/><circle cx="374.0" cy="464.0" r="4.5" fill="#7C858E"/><line x1="408.0" y1="454.0" x2="392.7" y2="464.0" stroke="#7C858E" stroke-width="5" stroke-linecap="round"/><circle cx="392.7" cy="464.0" r="4.5" fill="#7C858E"/><line x1="408.0" y1="454.0" x2="423.3" y2="464.0" stroke="#7C858E" stroke-width="5" stroke-linecap="round"/><circle cx="423.3" cy="464.0" r="4.5" fill="#7C858E"/><line x1="408.0" y1="454.0" x2="442.0" y2="464.0" stroke="#7C858E" stroke-width="5" stroke-linecap="round"/><circle cx="442.0" cy="464.0" r="4.5" fill="#7C858E"/><line x1="408.0" y1="454.0" x2="408.0" y2="464.0" stroke="#7C858E" stroke-width="5" stroke-linecap="round"/><circle cx="408.0" cy="464.0" r="4.5" fill="#7C858E"/><rect x="403.0" y="416.0" width="10.0" height="38.0" fill="#7C858E" rx="3"/><rect x="376.0" y="404.0" width="64.0" height="14.0" fill="#56606C" rx="6"/><rect x="382.0" y="342.0" width="52.0" height="62.0" fill="#56606C" rx="16"/><rect x="388.0" y="348.0" width="40.0" height="48.0" fill="#454E58" rx="10" opacity="0.4"/><rect x="368.0" y="398.0" width="12.0" height="5.0" fill="#1C232C" rx="2" opacity="0.7"/><rect x="436.0" y="398.0" width="12.0" height="5.0" fill="#1C232C" rx="2" opacity="0.7"/><rect x="546.0" y="296.0" width="218.0" height="44.0" fill="#56606C" rx="4" opacity="0.85"/><rect x="546.0" y="296.0" width="218.0" height="5.0" fill="#454E58" rx="3" opacity="0.6"/><rect x="540.0" y="336.0" width="230.0" height="11.0" fill="#F8F6F2" rx="3"/><rect x="540.0" y="347.0" width="230.0" height="5.0" fill="#996E41" opacity="0.55"/><rect x="552.0" y="352.0" width="9.0" height="48.0" fill="#7C858E" rx="2"/><rect x="749.0" y="352.0" width="9.0" height="48.0" fill="#7C858E" rx="2"/><rect x="554.0" y="396.0" width="202.0" height="5.0" fill="#7C858E" rx="2" opacity="0.75"/><rect x="651.0" y="312.0" width="8.0" height="24.0" fill="#7C858E" rx="2"/><ellipse cx="655.0" cy="336.0" rx="26.0" ry="5.0" fill="#7C858E"/><rect x="611.0" y="258.0" width="88.0" height="54.0" fill="#2C3440" rx="4"/><rect x="615.0" y="262.0" width="80.0" height="46.0" fill="#8FA6B4" rx="2" opacity="0.85"/><rect x="708.0" y="352.0" width="52.0" height="86.0" fill="#F8F6F2" rx="4"/><rect x="708.0" y="352.0" width="52.0" height="86.0" fill="#7C858E" rx="4" opacity="0.14"/><line x1="716.0" y1="372.0" x2="752.0" y2="372.0" stroke="#7C858E" stroke-width="2" stroke-linecap="round" opacity="0.5"/><line x1="716.0" y1="396.0" x2="752.0" y2="396.0" stroke="#7C858E" stroke-width="2" stroke-linecap="round" opacity="0.5"/><line x1="716.0" y1="420.0" x2="752.0" y2="420.0" stroke="#7C858E" stroke-width="2" stroke-linecap="round" opacity="0.5"/><line x1="648.0" y1="454.0" x2="614.0" y2="464.0" stroke="#7C858E" stroke-width="5" stroke-linecap="round"/><circle cx="614.0" cy="464.0" r="4.5" fill="#7C858E"/><line x1="648.0" y1="454.0" x2="632.7" y2="464.0" stroke="#7C858E" stroke-width="5" stroke-linecap="round"/><circle cx="632.7" cy="464.0" r="4.5" fill="#7C858E"/><line x1="648.0" y1="454.0" x2="663.3" y2="464.0" stroke="#7C858E" stroke-width="5" stroke-linecap="round"/><circle cx="663.3" cy="464.0" r="4.5" fill="#7C858E"/><line x1="648.0" y1="454.0" x2="682.0" y2="464.0" stroke="#7C858E" stroke-width="5" stroke-linecap="round"/><circle cx="682.0" cy="464.0" r="4.5" fill="#7C858E"/><line x1="648.0" y1="454.0" x2="648.0" y2="464.0" stroke="#7C858E" stroke-width="5" stroke-linecap="round"/><circle cx="648.0" cy="464.0" r="4.5" fill="#7C858E"/><rect x="643.0" y="416.0" width="10.0" height="38.0" fill="#7C858E" rx="3"/><rect x="616.0" y="404.0" width="64.0" height="14.0" fill="#56606C" rx="6"/><rect x="622.0" y="342.0" width="52.0" height="62.0" fill="#56606C" rx="16"/><rect x="628.0" y="348.0" width="40.0" height="48.0" fill="#454E58" rx="10" opacity="0.4"/><rect x="608.0" y="398.0" width="12.0" height="5.0" fill="#1C232C" rx="2" opacity="0.7"/><rect x="676.0" y="398.0" width="12.0" height="5.0" fill="#1C232C" rx="2" opacity="0.7"/><polygon points="718.9,430.0 765.1,430.0 759.9,381.7 724.1,381.7" fill="#B6633F"/><rect x="723.1" y="377.5" width="37.8" height="8.4" fill="#9E5334" rx="2"/><rect x="738.9" y="314.5" width="6.3" height="65.1" fill="#3E6448"/><ellipse cx="725.2" cy="348.1" rx="21.0" ry="16.4" fill="#4E7D5A" opacity="0.85"/><ellipse cx="756.7" cy="341.8" rx="18.9" ry="14.7" fill="#4E7D5A" opacity="0.7999999999999999"/><ellipse cx="742.0" cy="320.8" rx="23.1" ry="18.0" fill="#4E7D5A" opacity="0.75"/><ellipse cx="733.6" cy="295.6" rx="16.8" ry="13.1" fill="#4E7D5A" opacity="0.7"/><ellipse cx="754.6" cy="304.0" rx="15.8" ry="12.3" fill="#4E7D5A" opacity="0.6499999999999999"/><rect x="0" y="0" width="800" height="600" fill="url(#gVig)"/></svg>