<svg xmlns="http://www.w3.org/2000/svg" viewBox="0 0 800 600" preserveAspectRatio="xMidYMid slice" role="img"><defs><linearGradient id="gWin" x1="0" y1="0" x2="0" y2="1"><stop offset="0%" stop-color="#DCEAF2"/><stop offset="55%" stop-color="#EDF4F8"/><stop offset="100%" stop-color="#F6F2EA"/></linearGradient><linearGradient id="gVig" x1="0" y1="0" x2="0" y2="1"><stop offset="0%" stop-color="#000000" stop-opacity="0.13"/><stop offset="38%" stop-color="#000000" stop-opacity="0"/><stop offset="100%" stop-color="#000000" stop-opacity="0.17"/></linearGradient></defs><rect x="0.0" y="0.0" width="800.0" height="400.0" fill="#EDF1F5"/><rect x="0.0" y="0.0" width="800.0" height="46.0" fill="#E4E9EE"/><rect x="0.0" y="46.0" width="800.0" height="4.0" fill="#DEE4EB" opacity="0.6"/><rect x="0.0" y="400.0" width="800.0" height="200.0" fill="#C3CCD6"/><rect x="0.0" y="390.0" width="800.0" height="10.0" fill="#ACB7C3" opacity="0.45"/><line x1="0.0" y1="430.0" x2="800.0" y2="430.0" stroke="#ACB7C3" stroke-width="1.5" stroke-linecap="round" opacity="0.35"/><line x1="0.0" y1="460.0" x2="800.0" y2="460.0" stroke="#ACB7C3" stroke-width="1.5" stroke-linecap="round" opacity="0.35"/><line x1="0.0" y1="490.0" x2="800.0" y2="490.0" stroke="#ACB7C3" stroke-width="1.5" stroke-linecap="round" opacity="0.35"/><line x1="0.0" y1="520.0" x2="800.0" y2="520.0" stroke="#ACB7C3" stroke-width="1.5" stroke-linecap="round" opacity="0.35"/><line x1="0.0" y1="550.0" x2="800.0" y2="550.0" stroke="#ACB7C3" stroke-width="1.5" stroke-linecap="round" opacity="0.35"/><line x1="0.0" y1="580.0" x2="800.0" y2="580.0" stroke="#ACB7C3" stroke-width="1.5" stroke-linecap="round" opacity="0.35"/><rect x="56.0" y="74.0" width="300.0" height="250.0" fill="#ffffff" rx="4" opacity="0.95"/><rect x="56" y="74" width="300" height="250" rx="4" fill="url(#gWin)"/><rect x="70.0" y="250.0" width="40.0" height="74.0" fill="#B9C6CE" opacity="0.55"/><rect x="120.0" y="225.0" width="32.0" height="99.0" fill="#C7D2D8" opacity="0.5"/><rect x="175.0" y="262.0" width="46.0" height="62.0" fill="#B3C0C9" opacity="0.5"/><rect x="240.0" y="236.0" width="36.0" height="88.0" fill="#C2CDD4" opacity="0.5"/><rect x="295.0" y="268.0" width="48.0" height="56.0" fill="#B7C4CC" opacity="0.5"/><line x1="156.0" y1="74.0" x2="156.0" y2="324.0" stroke="#7C858E" stroke-width="5" stroke-linecap="butt" opacity="0.85"/><line x1="256.0" y1="74.0" x2="256.0" y2="324.0" stroke="#7C858E" stroke-width="5" stroke-linecap="butt" opacity="0.85"/><line x1="56.0" y1="190.0" x2="356.0" y2="190.0" stroke="#7C858E" stroke-width="5" stroke-linecap="butt" opacity="0.85"/><rect x="53" y="71" width="306" height="256" rx="5" fill="none" stroke="#7C858E" stroke-width="6"/><rect x="150.0" y="46.0" width="260.0" height="9.0" fill="#F8F6F2" rx="4"/><rect x="470.0" y="46.0" width="200.0" height="9.0" fill="#F8F6F2" rx="4"/><rect x="150.0" y="55.0" width="260.0" height="16.0" fill="#FFFFFF" rx="6" opacity="0.28"/><rect x="470.0" y="55.0" width="200.0" height="16.0" fill="#FFFFFF" rx="6" opacity="0.28"/><rect x="430.0" y="96.0" width="320.0" height="120.0" fill="#F8F6F2" rx="5"/><rect x="438.0" y="104.0" width="70.0" height="104.0" fill="#DEE4EB" rx="4"/><rect x="517.0" y="104.0" width="70.0" height="104.0" fill="#DEE4EB" rx="4"/><rect x="596.0" y="104.0" width="70.0" height="104.0" fill="#DEE4EB" rx="4"/><rect x="675.0" y="104.0" width="70.0" height="104.0" fill="#DEE4EB" rx="4"/><rect x="430.0" y="300.0" width="320.0" height="100.0" fill="#F8F6F2" rx="5"/><rect x="424.0" y="292.0" width="332.0" height="14.0" fill="#2C3440" rx="5"/><rect x="438.0" y="314.0" width="70.0" height="78.0" fill="#DEE4EB" rx="4"/><rect x="462.0" y="322.0" width="22.0" height="5.0" fill="#7C858E" rx="3"/><rect x="517.0" y="314.0" width="70.0" height="78.0" fill="#DEE4EB" rx="4"/><rect x="541.0" y="322.0" width="22.0" height="5.0" fill="#7C858E" rx="3"/><rect x="596.0" y="314.0" width="70.0" height="78.0" fill="#DEE4EB" rx="4"/><rect x="620.0" y="322.0" width="22.0" height="5.0" fill="#7C858E" rx="3"/><rect x="675.0" y="314.0" width="70.0" height="78.0" fill="#DEE4EB" rx="4"/><rect x="699.0" y="322.0" width="22.0" height="5.0" fill="#7C858E" rx="3"/><ellipse cx="300.0" cy="548.0" rx="215.0" ry="34.0" fill="#ACB7C3" opacity="0.4"/><rect x="169.0" y="396.0" width="54.0" height="66.0" fill="#DFE3E7" rx="24"/><rect x="175.0" y="404.0" width="42.0" height="50.0" fill="#C2C9D0" rx="20" opacity="0.55"/><rect x="165.0" y="458.0" width="62.0" height="14.0" fill="#C2C9D0" rx="7"/><line x1="174.0" y1="470.0" x2="168.0" y2="516.0" stroke="#BC8D5C" stroke-width="6" stroke-linecap="round"/><line x1="218.0" y1="470.0" x2="224.0" y2="516.0" stroke="#BC8D5C" stroke-width="6" stroke-linecap="round"/><rect x="377.0" y="396.0" width="54.0" height="66.0" fill="#DFE3E7" rx="24"/><rect x="383.0" y="404.0" width="42.0" height="50.0" fill="#C2C9D0" rx="20" opacity="0.55"/><rect x="373.0" y="458.0" width="62.0" height="14.0" fill="#C2C9D0" rx="7"/><line x1="382.0" y1="470.0" x2="376.0" y2="516.0" stroke="#BC8D5C" stroke-width="6" stroke-linecap="round"/><line x1="426.0" y1="470.0" x2="432.0" y2="516.0" stroke="#BC8D5C" stroke-width="6" stroke-linecap="round"/><ellipse cx="300.0" cy="470.0" rx="148.0" ry="27.0" fill="#FFFFFF"/><rect x="152.0" y="470.0" width="296.0" height="8.0" fill="#D3D8DD"/><ellipse cx="300.0" cy="478.0" rx="148.0" ry="27.0" fill="#C6CCD2"/><rect x="291.0" y="484.0" width="18.0" height="58.0" fill="#7C858E" rx="6"/><ellipse cx="300.0" cy="544.0" rx="54.0" ry="12.0" fill="#7C858E"/><rect x="210.0" y="440.0" width="56.0" height="76.0" fill="#DFE3E7" rx="25"/><rect x="216.0" y="448.0" width="44.0" height="60.0" fill="#C2C9D0" rx="21" opacity="0.5"/><line x1="218.0" y1="512.0" x2="211.0" y2="560.0" stroke="#BC8D5C" stroke-width="6" stroke-linecap="round"/><line x1="258.0" y1="512.0" x2="265.0" y2="560.0" stroke="#BC8D5C" stroke-width="6" stroke-linecap="round"/><rect x="334.0" y="440.0" width="56.0" height="76.0" fill="#DFE3E7" rx="25"/><rect x="340.0" y="448.0" width="44.0" height="60.0" fill="#C2C9D0" rx="21" opacity="0.5"/><line x1="342.0" y1="512.0" x2="335.0" y2="560.0" stroke="#BC8D5C" stroke-width="6" stroke-linecap="round"/><line x1="382.0" y1="512.0" x2="389.0" y2="560.0" stroke="#BC8D5C" stroke-width="6" stroke-linecap="round"/><polygon points="738.0,446.0 782.0,446.0 777.0,400.0 743.0,400.0" fill="#B6633F"/><rect x="742.0" y="396.0" width="36.0" height="8.0" fill="#9E5334" rx="2"/><rect x="757.0" y="336.0" width="6.0" height="62.0" fill="#3E6448"/><ellipse cx="744.0" cy="368.0" rx="20.0" ry="15.6" fill="#4E7D5A" opacity="0.85"/><ellipse cx="774.0" cy="362.0" rx="18.0" ry="14.0" fill="#4E7D5A" opacity="0.7999999999999999"/><ellipse cx="760.0" cy="342.0" rx="22.0" ry="17.2" fill="#4E7D5A" opacity="0.75"/><ellipse cx="752.0" cy="318.0" rx="16.0" ry="12.5" fill="#4E7D5A" opacity="0.7"/><ellipse cx="772.0" cy="326.0" rx="15.0" ry="11.7" fill="#4E7D5A" opacity="0.6499999999999999"/><rect x="0" y="0" width="800" height="600" fill="url(#gVig)"/></svg>